<svg width="116" height="115" viewBox="0 0 116 115" fill="none" xmlns="http://www.w3.org/2000/svg">
<g filter="url(#filter0_bd_58_809)">
<rect x="30" y="15" width="56" height="55" rx="10" fill="#5EB4F6"/>
<rect x="30.5" y="15.5" width="55" height="54" rx="9.5" stroke="white"/>
</g>
<path d="M64 51V49C64 47.9391 63.5786 46.9217 62.8284 46.1716C62.0783 45.4214 61.0609 45 60 45H52C50.9391 45 49.9217 45.4214 49.1716 46.1716C48.4214 46.9217 48 47.9391 48 49V51" fill="#5EB4F6"/>
<path d="M64 51V49C64 47.9391 63.5786 46.9217 62.8284 46.1716C62.0783 45.4214 61.0609 45 60 45H52C50.9391 45 49.9217 45.4214 49.1716 46.1716C48.4214 46.9217 48 47.9391 48 49V51" stroke="white" stroke-width="2" stroke-linecap="round" stroke-linejoin="round"/>
<path d="M56 41C58.2091 41 60 39.2091 60 37C60 34.7909 58.2091 33 56 33C53.7909 33 52 34.7909 52 37C52 39.2091 53.7909 41 56 41Z" fill="#5EB4F6" stroke="white" stroke-width="2" stroke-linecap="round" stroke-linejoin="round"/>
<path d="M70 51V49C69.9993 48.1137 69.7044 47.2528 69.1614 46.5523C68.6184 45.8519 67.8581 45.3516 67 45.13" fill="#5EB4F6"/>
<path d="M70 51V49C69.9993 48.1137 69.7044 47.2528 69.1614 46.5523C68.6184 45.8519 67.8581 45.3516 67 45.13" stroke="white" stroke-width="2" stroke-linecap="round" stroke-linejoin="round"/>
<path d="M63 33.13C63.8604 33.3503 64.623 33.8507 65.1676 34.5523C65.7122 35.2539 66.0078 36.1168 66.0078 37.005C66.0078 37.8932 65.7122 38.7561 65.1676 39.4577C64.623 40.1593 63.8604 40.6597 63 40.88" fill="#5EB4F6"/>
<path d="M63 33.13C63.8604 33.3503 64.623 33.8507 65.1676 34.5523C65.7122 35.2539 66.0078 36.1168 66.0078 37.005C66.0078 37.8932 65.7122 38.7561 65.1676 39.4577C64.623 40.1593 63.8604 40.6597 63 40.88" stroke="white" stroke-width="2" stroke-linecap="round" stroke-linejoin="round"/>
<defs>
<filter id="filter0_bd_58_809" x="0" y="0" width="116" height="115" filterUnits="userSpaceOnUse" color-interpolation-filters="sRGB">
<feFlood flood-opacity="0" result="BackgroundImageFix"/>
<feGaussianBlur in="BackgroundImageFix" stdDeviation="2"/>
<feComposite in2="SourceAlpha" operator="in" result="effect1_backgroundBlur_58_809"/>
<feColorMatrix in="SourceAlpha" type="matrix" values="0 0 0 0 0 0 0 0 0 0 0 0 0 0 0 0 0 0 127 0" result="hardAlpha"/>
<feOffset dy="15"/>
<feGaussianBlur stdDeviation="15"/>
<feComposite in2="hardAlpha" operator="out"/>
<feColorMatrix type="matrix" values="0 0 0 0 0.368627 0 0 0 0 0.705882 0 0 0 0 0.964706 0 0 0 0.25 0"/>
<feBlend mode="normal" in2="effect1_backgroundBlur_58_809" result="effect2_dropShadow_58_809"/>
<feBlend mode="normal" in="SourceGraphic" in2="effect2_dropShadow_58_809" result="shape"/>
</filter>
</defs>
</svg>
