<svg width="1345" height="877" viewBox="0 0 1345 877" fill="none" xmlns="http://www.w3.org/2000/svg">
<path d="M91.5684 0V54.9635M91.5684 54.9635H790.62C812.712 54.9635 830.62 72.8722 830.62 94.9635V254.938C830.62 277.03 848.529 294.938 870.62 294.938H985.766C1007.86 294.938 1025.77 312.847 1025.77 334.938V527.876C1025.77 549.82 1043.45 567.667 1065.39 567.874L1303.29 570.12C1325.46 570.33 1343.23 588.537 1342.91 610.71L1339.58 835.591C1339.26 857.45 1321.45 875 1299.59 875H526.864C504.772 875 486.864 857.091 486.864 835V680.914C486.864 658.823 468.955 640.914 446.864 640.914H227.14C205.048 640.914 187.14 623.006 187.14 600.914V415.911C187.14 393.82 169.231 375.911 147.14 375.911H41.5895C18.887 375.911 0.735586 357.039 1.61977 334.354L11.011 93.4057C11.8478 71.9367 29.4954 54.9635 50.9807 54.9635H91.5684Z" stroke="#5EB4F6" stroke-width="3" stroke-dasharray="10 10"/>
</svg>
